<svg width="20" height="20" viewBox="0 0 20 20" fill="none" xmlns="http://www.w3.org/2000/svg">
<path d="M19.2909 6.2859L18.1823 5.22235V2.82509C18.1823 1.28124 16.9279 0.0268555 15.384 0.0268555C13.9774 0.0268555 12.8131 1.0711 12.618 2.42412H9.38875C8.96848 2.42412 8.55678 2.59566 8.25873 2.89156L1.06266 10.0876C0.766754 10.3857 0.595215 10.7974 0.595215 11.2198C0.595215 11.6422 0.766754 12.0518 1.06266 12.3498L5.85933 17.1465C6.15738 17.4445 6.56907 17.6139 6.98934 17.6139C7.40961 17.6139 7.82131 17.4424 8.11936 17.1465L9.3866 15.8792V17.6161C9.3866 18.0363 9.56458 18.4502 9.87549 18.7504C10.18 19.0463 10.6045 19.2157 11.042 19.2157H18.1244C18.5597 19.2157 18.9842 19.0463 19.2909 18.7504C19.6018 18.4502 19.7797 18.0363 19.7797 17.6161V7.42234C19.7819 7.00207 19.6039 6.58823 19.2909 6.2859ZM15.384 0.826657C16.4862 0.826657 17.3825 1.72295 17.3825 2.82509V4.45686L15.7507 2.89156C15.3926 2.54205 14.8887 2.38338 14.3956 2.4477C14.3269 2.43484 14.2583 2.42841 14.1854 2.42841H13.4264C13.6129 1.51496 14.4191 0.826657 15.384 0.826657ZM12.9868 3.99799C13.6622 3.99799 14.2111 4.54692 14.2111 5.22235C14.2111 5.89779 13.6622 6.44671 12.9868 6.44671C12.3113 6.44671 11.7624 5.89779 11.7624 5.22235C11.7624 4.54906 12.3113 3.99799 12.9868 3.99799ZM18.9821 17.6139C18.9821 17.8176 18.892 18.0235 18.7355 18.1736C18.579 18.3258 18.356 18.4116 18.1265 18.4116H11.0441C10.8147 18.4116 10.5917 18.3237 10.4351 18.1736C10.2786 18.0235 10.1885 17.8176 10.1885 17.6139V15.0794L15.3154 9.95255C15.6135 9.6545 15.7829 9.2428 15.7829 8.82253V4.03015L18.7355 6.86055C18.892 7.01065 18.9821 7.2165 18.9821 7.4202V17.6139Z" fill="#13A6BA"/>
<path d="M12.9867 5.62334C13.2076 5.62334 13.3856 5.44323 13.3856 5.22451C13.3856 5.00366 13.2055 4.82568 12.9867 4.82568C12.768 4.82568 12.5879 5.0058 12.5879 5.22451C12.5858 5.44323 12.7659 5.62334 12.9867 5.62334Z" fill="#13A6BA"/>
</svg>
